# xmcd
#
# Track frame offsets: 
#        150
#        16218
#        32368
#
# Disc length: 566 seconds
#
# Revision: 0
# Processed by: cddbd v1.5.2PL0 Copyright (c) Steve Scherf et al.
# Submitted via: ExactAudioCopyFreeDBPlugin 1.0
#
DISCID=13023403
DTITLE=Bent - Stay the Same [Ltd. Ed. CD1]
DYEAR=2003
DGENRE=Electronic
TTITLE0=Stay the Same (Planet Funk Radio Version)
TTITLE1=Lupin Glade
TTITLE2=Different Hill
EXTD=
EXTT0=
EXTT1=
EXTT2=
PLAYORDER=
